<mxfile host="65bd71144e">
    <diagram id="DSDsXnFP1v6kwenmJiHx" name="Page-1">
        <mxGraphModel dx="728" dy="586" grid="1" gridSize="10" guides="1" tooltips="1" connect="1" arrows="1" fold="1" page="1" pageScale="1" pageWidth="827" pageHeight="1169" background="none" math="0" shadow="0">
            <root>
                <mxCell id="0"/>
                <mxCell id="1" parent="0"/>
                <mxCell id="25" value="" style="edgeStyle=none;html=1;strokeWidth=3;shadow=1;textShadow=1;spacing=2;" parent="1" source="2" target="24" edge="1">
                    <mxGeometry relative="1" as="geometry"/>
                </mxCell>
                <mxCell id="2" value="main" style="strokeWidth=2;html=1;shape=mxgraph.flowchart.terminator;whiteSpace=wrap;fillColor=#d80073;strokeColor=#A50040;shadow=1;fontColor=#ffffff;textShadow=1;spacing=2;" parent="1" vertex="1">
                    <mxGeometry x="270" y="40" width="100" height="60" as="geometry"/>
                </mxCell>
                <mxCell id="24" value="menu()" style="shape=process;whiteSpace=wrap;html=1;backgroundOutline=1;strokeWidth=3;shadow=1;fillColor=#0050ef;strokeColor=#001DBC;fontColor=#ffffff;textShadow=1;spacing=2;" parent="1" vertex="1">
                    <mxGeometry x="230" y="150" width="180" height="60" as="geometry"/>
                </mxCell>
                <mxCell id="109" value="std::toupper(continueChoice)&lt;br&gt;== &#39;Y&#39;" style="rhombus;whiteSpace=wrap;html=1;fillColor=#6a00ff;strokeColor=#3700CC;strokeWidth=2;shadow=1;fontColor=#ffffff;textShadow=1;spacing=2;" parent="1" vertex="1">
                    <mxGeometry x="230" y="1570" width="190" height="190" as="geometry"/>
                </mxCell>
                <mxCell id="118" value="" style="edgeStyle=none;html=1;strokeWidth=3;shadow=1;textShadow=1;spacing=2;exitX=1;exitY=0.5;exitDx=0;exitDy=0;" parent="1" source="24" edge="1">
                    <mxGeometry relative="1" as="geometry">
                        <mxPoint x="319.66" y="210" as="sourcePoint"/>
                        <mxPoint x="460" y="180" as="targetPoint"/>
                    </mxGeometry>
                </mxCell>
                <mxCell id="119" value="bookingType = getBookingType()" style="whiteSpace=wrap;html=1;fillColor=#fa6800;fontColor=#FFFFFF;strokeColor=#C73500;strokeWidth=3;textShadow=1;spacing=2;" parent="1" vertex="1">
                    <mxGeometry x="460" y="150" width="180" height="60" as="geometry"/>
                </mxCell>
                <mxCell id="121" value="driverCount =&lt;br&gt;getDriverCount(bookingType)" style="whiteSpace=wrap;html=1;fillColor=#fa6800;fontColor=#FFFFFF;strokeColor=#C73500;strokeWidth=3;textShadow=1;spacing=2;" parent="1" vertex="1">
                    <mxGeometry x="690" y="150" width="180" height="60" as="geometry"/>
                </mxCell>
                <mxCell id="124" value="getDriverDetails (driverCount, driverName, driverAge, license)" style="shape=process;whiteSpace=wrap;html=1;backgroundOutline=1;strokeWidth=3;shadow=1;fillColor=#0050ef;strokeColor=#001DBC;fontColor=#ffffff;textShadow=1;spacing=2;" parent="1" vertex="1">
                    <mxGeometry x="920" y="150" width="180" height="60" as="geometry"/>
                </mxCell>
                <mxCell id="125" value="" style="edgeStyle=none;html=1;strokeWidth=3;shadow=1;entryX=0.5;entryY=0;entryDx=0;entryDy=0;textShadow=1;spacing=2;" parent="1" edge="1">
                    <mxGeometry relative="1" as="geometry">
                        <mxPoint x="1009.71" y="210" as="sourcePoint"/>
                        <mxPoint x="1010.05" y="260" as="targetPoint"/>
                    </mxGeometry>
                </mxCell>
                <mxCell id="126" value="raceFormat =&lt;br&gt;setRaceFormat(bookingType)" style="whiteSpace=wrap;html=1;fillColor=#fa6800;fontColor=#FFFFFF;strokeColor=#C73500;strokeWidth=3;textShadow=1;spacing=2;" parent="1" vertex="1">
                    <mxGeometry x="920" y="260" width="180" height="60" as="geometry"/>
                </mxCell>
                <mxCell id="228" value="" style="edgeStyle=none;html=1;strokeWidth=3;" parent="1" source="129" target="132" edge="1">
                    <mxGeometry relative="1" as="geometry"/>
                </mxCell>
                <mxCell id="129" value="track = setTrack(bookingType, raceFormat)" style="whiteSpace=wrap;html=1;fillColor=#fa6800;fontColor=#FFFFFF;strokeColor=#C73500;strokeWidth=3;textShadow=1;spacing=2;" parent="1" vertex="1">
                    <mxGeometry x="690" y="260" width="180" height="60" as="geometry"/>
                </mxCell>
                <mxCell id="229" value="" style="edgeStyle=none;html=1;strokeWidth=3;" parent="1" source="132" target="134" edge="1">
                    <mxGeometry relative="1" as="geometry"/>
                </mxCell>
                <mxCell id="132" value="setEngineCapacity&lt;br&gt;(driverCount, driverName, driverAge, license)" style="shape=process;whiteSpace=wrap;html=1;backgroundOutline=1;strokeWidth=3;shadow=1;fillColor=#0050ef;strokeColor=#001DBC;fontColor=#ffffff;textShadow=1;spacing=2;" parent="1" vertex="1">
                    <mxGeometry x="460" y="260" width="180" height="60" as="geometry"/>
                </mxCell>
                <mxCell id="134" value="laps = setLaps(driverCount, raceFormat)" style="whiteSpace=wrap;html=1;fillColor=#fa6800;fontColor=#FFFFFF;strokeColor=#C73500;strokeWidth=3;textShadow=1;spacing=2;" parent="1" vertex="1">
                    <mxGeometry x="230" y="260" width="180" height="60" as="geometry"/>
                </mxCell>
                <mxCell id="135" value="" style="edgeStyle=none;html=1;strokeWidth=3;shadow=1;entryX=0.5;entryY=0;entryDx=0;entryDy=0;textShadow=1;spacing=2;" parent="1" edge="1">
                    <mxGeometry relative="1" as="geometry">
                        <mxPoint x="319.66" y="320" as="sourcePoint"/>
                        <mxPoint x="320" y="370" as="targetPoint"/>
                    </mxGeometry>
                </mxCell>
                <mxCell id="136" value="i =0,&lt;br&gt;i &amp;lt; driverCount,&lt;br&gt;i++" style="rhombus;whiteSpace=wrap;html=1;fillColor=#6a00ff;fontColor=#ffffff;strokeColor=#3700CC;textShadow=1;spacing=2;strokeWidth=3;" parent="1" vertex="1">
                    <mxGeometry x="265" y="370" width="110" height="110" as="geometry"/>
                </mxCell>
                <mxCell id="143" value="selectSuit(i, suitSize, suitPrice)" style="shape=process;whiteSpace=wrap;html=1;backgroundOutline=1;strokeWidth=3;shadow=1;fillColor=#0050ef;strokeColor=#001DBC;fontColor=#ffffff;textShadow=1;spacing=2;" parent="1" vertex="1">
                    <mxGeometry x="660" y="510" width="180" height="60" as="geometry"/>
                </mxCell>
                <mxCell id="145" value="selectShoe(i, shoeSize, shoePrice)" style="shape=process;whiteSpace=wrap;html=1;backgroundOutline=1;strokeWidth=3;shadow=1;fillColor=#0050ef;strokeColor=#001DBC;fontColor=#ffffff;textShadow=1;spacing=2;" parent="1" vertex="1">
                    <mxGeometry x="430" y="510" width="180" height="60" as="geometry"/>
                </mxCell>
                <mxCell id="146" value="" style="edgeStyle=none;html=1;strokeWidth=3;shadow=1;entryX=1;entryY=1;entryDx=0;entryDy=0;exitX=0;exitY=0.5;exitDx=0;exitDy=0;rounded=0;curved=0;textShadow=1;spacing=2;" parent="1" source="145" target="136" edge="1">
                    <mxGeometry relative="1" as="geometry">
                        <mxPoint x="428" y="770" as="sourcePoint"/>
                        <mxPoint x="346.5" y="452.5" as="targetPoint"/>
                        <Array as="points">
                            <mxPoint x="348" y="540"/>
                        </Array>
                    </mxGeometry>
                </mxCell>
                <mxCell id="149" value="totalGearPrice = calculateTotalGearPrice (driverCount, helmetPrice, suitPrice, shoePrice, gearPrice)" style="whiteSpace=wrap;html=1;fillColor=#fa6800;fontColor=#FFFFFF;strokeColor=#C73500;strokeWidth=3;textShadow=1;spacing=2;" parent="1" vertex="1">
                    <mxGeometry x="200" y="630" width="240" height="80" as="geometry"/>
                </mxCell>
                <mxCell id="150" value="" style="endArrow=classic;html=1;exitX=0.5;exitY=1;exitDx=0;exitDy=0;entryX=0.5;entryY=0;entryDx=0;entryDy=0;strokeWidth=3;textShadow=1;spacing=2;" parent="1" source="136" target="149" edge="1">
                    <mxGeometry relative="1" as="geometry">
                        <mxPoint x="300" y="630" as="sourcePoint"/>
                        <mxPoint x="400" y="630" as="targetPoint"/>
                    </mxGeometry>
                </mxCell>
                <mxCell id="151" value="False" style="edgeLabel;resizable=0;html=1;;align=center;verticalAlign=middle;textShadow=1;spacing=2;" parent="150" connectable="0" vertex="1">
                    <mxGeometry relative="1" as="geometry"/>
                </mxCell>
                <mxCell id="152" value="" style="endArrow=classic;html=1;exitX=1;exitY=0.5;exitDx=0;exitDy=0;entryX=0;entryY=0.5;entryDx=0;entryDy=0;strokeWidth=3;textShadow=1;spacing=2;" parent="1" source="136" edge="1">
                    <mxGeometry relative="1" as="geometry">
                        <mxPoint x="390" y="460" as="sourcePoint"/>
                        <mxPoint x="430" y="425" as="targetPoint"/>
                    </mxGeometry>
                </mxCell>
                <mxCell id="153" value="True" style="edgeLabel;resizable=0;html=1;;align=center;verticalAlign=middle;textShadow=1;spacing=2;" parent="152" connectable="0" vertex="1">
                    <mxGeometry relative="1" as="geometry">
                        <mxPoint x="-3" as="offset"/>
                    </mxGeometry>
                </mxCell>
                <mxCell id="155" value="" style="edgeStyle=none;html=1;strokeWidth=3;shadow=1;textShadow=1;spacing=2;" parent="1" edge="1">
                    <mxGeometry relative="1" as="geometry">
                        <mxPoint x="440" y="669.47" as="sourcePoint"/>
                        <mxPoint x="490" y="669.47" as="targetPoint"/>
                    </mxGeometry>
                </mxCell>
                <mxCell id="156" value="totalPrice = calculatePrice (engineCapacity, laps, driverCount, totalGearPrice, membershipDiscount)" style="whiteSpace=wrap;html=1;fillColor=#fa6800;fontColor=#FFFFFF;strokeColor=#C73500;strokeWidth=3;textShadow=1;spacing=2;" parent="1" vertex="1">
                    <mxGeometry x="490" y="630" width="240" height="80" as="geometry"/>
                </mxCell>
                <mxCell id="157" value="" style="edgeStyle=none;html=1;strokeWidth=3;shadow=1;entryX=0.5;entryY=0;entryDx=0;entryDy=0;textShadow=1;spacing=2;exitX=1;exitY=0.5;exitDx=0;exitDy=0;rounded=0;curved=0;" parent="1" edge="1" target="304" source="156">
                    <mxGeometry relative="1" as="geometry">
                        <mxPoint x="760" y="650" as="sourcePoint"/>
                        <mxPoint x="760.34" y="700" as="targetPoint"/>
                        <Array as="points">
                            <mxPoint x="860" y="670"/>
                        </Array>
                    </mxGeometry>
                </mxCell>
                <mxCell id="230" value="" style="edgeStyle=none;html=1;strokeWidth=3;" parent="1" target="161" edge="1">
                    <mxGeometry relative="1" as="geometry">
                        <mxPoint x="520" y="790" as="sourcePoint"/>
                    </mxGeometry>
                </mxCell>
                <mxCell id="161" value="Output:&lt;br&gt;&quot;Laps&quot;, track" style="shape=parallelogram;perimeter=parallelogramPerimeter;whiteSpace=wrap;html=1;fixedSize=1;fillColor=#008a00;fontColor=#ffffff;strokeColor=#005700;textShadow=1;spacing=2;strokeWidth=3;" parent="1" vertex="1">
                    <mxGeometry x="225" y="760" width="200" height="60" as="geometry"/>
                </mxCell>
                <mxCell id="162" value="i =0,&lt;br&gt;i &amp;lt; driverCount,&lt;br&gt;i++" style="rhombus;whiteSpace=wrap;html=1;fillColor=#6a00ff;fontColor=#ffffff;strokeColor=#3700CC;textShadow=1;spacing=2;strokeWidth=3;" parent="1" vertex="1">
                    <mxGeometry x="270" y="870" width="110" height="110" as="geometry"/>
                </mxCell>
                <mxCell id="163" value="" style="edgeStyle=none;html=1;strokeWidth=3;shadow=1;entryX=0.5;entryY=0;entryDx=0;entryDy=0;textShadow=1;spacing=2;" parent="1" edge="1">
                    <mxGeometry relative="1" as="geometry">
                        <mxPoint x="324.57000000000005" y="820" as="sourcePoint"/>
                        <mxPoint x="324.91" y="870" as="targetPoint"/>
                    </mxGeometry>
                </mxCell>
                <mxCell id="164" value="" style="endArrow=classic;html=1;exitX=1;exitY=0.5;exitDx=0;exitDy=0;entryX=0;entryY=0.5;entryDx=0;entryDy=0;strokeWidth=3;textShadow=1;spacing=2;" parent="1" edge="1">
                    <mxGeometry relative="1" as="geometry">
                        <mxPoint x="380" y="924.5700000000002" as="sourcePoint"/>
                        <mxPoint x="435" y="924.5700000000002" as="targetPoint"/>
                    </mxGeometry>
                </mxCell>
                <mxCell id="165" value="True" style="edgeLabel;resizable=0;html=1;;align=center;verticalAlign=middle;textShadow=1;spacing=2;" parent="164" connectable="0" vertex="1">
                    <mxGeometry relative="1" as="geometry">
                        <mxPoint x="-3" as="offset"/>
                    </mxGeometry>
                </mxCell>
                <mxCell id="166" value="Output:&lt;br&gt;&quot;Driver: &quot;, driverName[i]" style="shape=parallelogram;perimeter=parallelogramPerimeter;whiteSpace=wrap;html=1;fixedSize=1;fillColor=#008a00;fontColor=#ffffff;strokeColor=#005700;textShadow=1;spacing=2;strokeWidth=3;" parent="1" vertex="1">
                    <mxGeometry x="425" y="895" width="200" height="60" as="geometry"/>
                </mxCell>
                <mxCell id="192" value="" style="edgeStyle=none;html=1;textShadow=1;strokeWidth=3;spacing=2;" parent="1" source="171" target="184" edge="1">
                    <mxGeometry relative="1" as="geometry"/>
                </mxCell>
                <mxCell id="171" value="Output:&lt;br&gt;&quot;Helmet Size: &quot;, helmetSize[i]" style="shape=parallelogram;perimeter=parallelogramPerimeter;whiteSpace=wrap;html=1;fixedSize=1;fillColor=#008a00;fontColor=#ffffff;strokeColor=#005700;textShadow=1;spacing=2;strokeWidth=3;" parent="1" vertex="1">
                    <mxGeometry x="1105" y="1010" width="200" height="60" as="geometry"/>
                </mxCell>
                <mxCell id="172" value="" style="edgeStyle=none;html=1;strokeWidth=3;shadow=1;textShadow=1;spacing=2;" parent="1" edge="1">
                    <mxGeometry relative="1" as="geometry">
                        <mxPoint x="840" y="424.8299999999999" as="sourcePoint"/>
                        <mxPoint x="890" y="424.8299999999999" as="targetPoint"/>
                    </mxGeometry>
                </mxCell>
                <mxCell id="173" value="selectHelmet(i, helmetSize, helmetPrice)" style="shape=process;whiteSpace=wrap;html=1;backgroundOutline=1;strokeWidth=3;shadow=1;fillColor=#0050ef;strokeColor=#001DBC;fontColor=#ffffff;textShadow=1;spacing=2;" parent="1" vertex="1">
                    <mxGeometry x="890" y="395" width="180" height="60" as="geometry"/>
                </mxCell>
                <mxCell id="174" value="" style="edgeStyle=none;html=1;strokeWidth=3;shadow=1;entryX=1;entryY=0.5;entryDx=0;entryDy=0;textShadow=1;spacing=2;rounded=0;curved=0;" parent="1" target="143" edge="1">
                    <mxGeometry relative="1" as="geometry">
                        <mxPoint x="979.7" y="455" as="sourcePoint"/>
                        <mxPoint x="980" y="510" as="targetPoint"/>
                        <Array as="points">
                            <mxPoint x="980" y="540"/>
                        </Array>
                    </mxGeometry>
                </mxCell>
                <mxCell id="176" value="" style="edgeStyle=none;html=1;strokeWidth=3;shadow=1;entryX=1;entryY=0.5;entryDx=0;entryDy=0;exitX=0;exitY=0.5;exitDx=0;exitDy=0;textShadow=1;spacing=2;" parent="1" source="143" target="145" edge="1">
                    <mxGeometry relative="1" as="geometry">
                        <mxPoint x="620" y="434.8299999999999" as="sourcePoint"/>
                        <mxPoint x="670" y="434.8299999999999" as="targetPoint"/>
                    </mxGeometry>
                </mxCell>
                <mxCell id="178" value="" style="edgeStyle=none;html=1;strokeWidth=3;shadow=1;textShadow=1;spacing=2;" parent="1" edge="1">
                    <mxGeometry relative="1" as="geometry">
                        <mxPoint x="615" y="924.8199999999999" as="sourcePoint"/>
                        <mxPoint x="665" y="924.8199999999999" as="targetPoint"/>
                    </mxGeometry>
                </mxCell>
                <mxCell id="179" value="Output:&lt;br&gt;&quot;Age: &quot;, driverAge[i]" style="shape=parallelogram;perimeter=parallelogramPerimeter;whiteSpace=wrap;html=1;fixedSize=1;fillColor=#008a00;fontColor=#ffffff;strokeColor=#005700;textShadow=1;spacing=2;strokeWidth=3;" parent="1" vertex="1">
                    <mxGeometry x="655" y="895" width="200" height="60" as="geometry"/>
                </mxCell>
                <mxCell id="180" value="" style="edgeStyle=none;html=1;strokeWidth=3;shadow=1;textShadow=1;spacing=2;" parent="1" edge="1">
                    <mxGeometry relative="1" as="geometry">
                        <mxPoint x="845" y="924.8199999999999" as="sourcePoint"/>
                        <mxPoint x="895" y="924.8199999999999" as="targetPoint"/>
                    </mxGeometry>
                </mxCell>
                <mxCell id="181" value="&lt;span style=&quot;color: rgb(255, 255, 255);&quot;&gt;Output:&lt;/span&gt;&lt;br&gt;&lt;span style=&quot;color: rgb(255, 255, 255);&quot;&gt;&quot;Has License: &quot;, license[i]&lt;/span&gt;" style="shape=parallelogram;perimeter=parallelogramPerimeter;whiteSpace=wrap;html=1;fixedSize=1;fillColor=#008a00;fontColor=#ffffff;strokeColor=#005700;textShadow=1;spacing=2;strokeWidth=3;" parent="1" vertex="1">
                    <mxGeometry x="885" y="895" width="200" height="60" as="geometry"/>
                </mxCell>
                <mxCell id="182" value="" style="edgeStyle=none;html=1;strokeWidth=3;shadow=1;textShadow=1;spacing=2;" parent="1" edge="1">
                    <mxGeometry relative="1" as="geometry">
                        <mxPoint x="1075" y="924.8199999999999" as="sourcePoint"/>
                        <mxPoint x="1125" y="924.8199999999999" as="targetPoint"/>
                    </mxGeometry>
                </mxCell>
                <mxCell id="298" value="" style="edgeStyle=none;html=1;strokeWidth=3;" parent="1" source="183" target="296" edge="1">
                    <mxGeometry relative="1" as="geometry"/>
                </mxCell>
                <mxCell id="183" value="&lt;span style=&quot;color: rgb(255, 255, 255);&quot;&gt;Output:&lt;/span&gt;&lt;br&gt;&lt;span style=&quot;color: rgb(255, 255, 255);&quot;&gt;&quot;Engine Capactiy: &quot;, engineCapacity[i], &quot;cc&quot;&lt;/span&gt;" style="shape=parallelogram;perimeter=parallelogramPerimeter;whiteSpace=wrap;html=1;fixedSize=1;fillColor=#008a00;fontColor=#ffffff;strokeColor=#005700;textShadow=1;spacing=2;strokeWidth=3;" parent="1" vertex="1">
                    <mxGeometry x="1115" y="895" width="200" height="60" as="geometry"/>
                </mxCell>
                <mxCell id="193" value="" style="edgeStyle=none;html=1;textShadow=1;strokeWidth=3;spacing=2;" parent="1" source="184" target="185" edge="1">
                    <mxGeometry relative="1" as="geometry"/>
                </mxCell>
                <mxCell id="184" value="&lt;span style=&quot;color: rgb(255, 255, 255);&quot;&gt;Output:&lt;/span&gt;&lt;br&gt;&lt;span style=&quot;color: rgb(255, 255, 255);&quot;&gt;&quot;Helmet Price: RM&quot;,&lt;br&gt;helmetPrice[i]&lt;/span&gt;" style="shape=parallelogram;perimeter=parallelogramPerimeter;whiteSpace=wrap;html=1;fixedSize=1;fillColor=#008a00;fontColor=#ffffff;strokeColor=#005700;textShadow=1;spacing=2;strokeWidth=3;" parent="1" vertex="1">
                    <mxGeometry x="885" y="1010" width="200" height="60" as="geometry"/>
                </mxCell>
                <mxCell id="194" value="" style="edgeStyle=none;html=1;textShadow=1;strokeWidth=3;spacing=2;" parent="1" source="185" target="186" edge="1">
                    <mxGeometry relative="1" as="geometry"/>
                </mxCell>
                <mxCell id="185" value="&lt;span style=&quot;color: rgb(255, 255, 255);&quot;&gt;Output:&lt;/span&gt;&lt;br&gt;&lt;span style=&quot;color: rgb(255, 255, 255);&quot;&gt;&quot;Suit Size: &quot;, suitSize[i]&lt;/span&gt;" style="shape=parallelogram;perimeter=parallelogramPerimeter;whiteSpace=wrap;html=1;fixedSize=1;fillColor=#008a00;fontColor=#ffffff;strokeColor=#005700;textShadow=1;spacing=2;strokeWidth=3;" parent="1" vertex="1">
                    <mxGeometry x="655" y="1010" width="200" height="60" as="geometry"/>
                </mxCell>
                <mxCell id="196" value="" style="edgeStyle=none;html=1;entryX=0.5;entryY=0;entryDx=0;entryDy=0;strokeWidth=4;textShadow=1;rounded=0;curved=0;spacing=2;" parent="1" source="186" target="187" edge="1">
                    <mxGeometry relative="1" as="geometry">
                        <mxPoint x="525.0000000000002" y="1150" as="targetPoint"/>
                        <Array as="points">
                            <mxPoint x="525" y="1100"/>
                            <mxPoint x="1205" y="1100"/>
                        </Array>
                    </mxGeometry>
                </mxCell>
                <mxCell id="186" value="&lt;span style=&quot;color: rgb(255, 255, 255);&quot;&gt;Output:&lt;/span&gt;&lt;br&gt;&lt;span style=&quot;color: rgb(255, 255, 255);&quot;&gt;&quot;Suit Price: RM&quot;, suitPrice[i]&lt;/span&gt;" style="shape=parallelogram;perimeter=parallelogramPerimeter;whiteSpace=wrap;html=1;fixedSize=1;fillColor=#008a00;fontColor=#ffffff;strokeColor=#005700;textShadow=1;spacing=2;strokeWidth=3;" parent="1" vertex="1">
                    <mxGeometry x="425" y="1010" width="200" height="60" as="geometry"/>
                </mxCell>
                <mxCell id="197" value="" style="edgeStyle=none;html=1;textShadow=1;strokeWidth=3;spacing=2;" parent="1" source="187" target="188" edge="1">
                    <mxGeometry relative="1" as="geometry"/>
                </mxCell>
                <mxCell id="187" value="&lt;span style=&quot;color: rgb(255, 255, 255);&quot;&gt;Output:&lt;/span&gt;&lt;br&gt;&lt;span style=&quot;color: rgb(255, 255, 255);&quot;&gt;&quot;Shoe Size: &quot;, shoeSize[i],&lt;br&gt;&quot;cm&quot;&lt;/span&gt;" style="shape=parallelogram;perimeter=parallelogramPerimeter;whiteSpace=wrap;html=1;fixedSize=1;fillColor=#008a00;fontColor=#ffffff;strokeColor=#005700;textShadow=1;spacing=2;strokeWidth=3;" parent="1" vertex="1">
                    <mxGeometry x="1105" y="1130" width="200" height="60" as="geometry"/>
                </mxCell>
                <mxCell id="198" value="" style="edgeStyle=none;html=1;textShadow=1;strokeWidth=3;spacing=2;" parent="1" source="188" target="189" edge="1">
                    <mxGeometry relative="1" as="geometry"/>
                </mxCell>
                <mxCell id="188" value="&lt;span style=&quot;color: rgb(255, 255, 255);&quot;&gt;Output:&lt;/span&gt;&lt;br&gt;&lt;span style=&quot;color: rgb(255, 255, 255);&quot;&gt;&quot;Shoe Price: RM&quot;, suitPrice[i]&lt;/span&gt;" style="shape=parallelogram;perimeter=parallelogramPerimeter;whiteSpace=wrap;html=1;fixedSize=1;fillColor=#008a00;fontColor=#ffffff;strokeColor=#005700;textShadow=1;spacing=2;strokeWidth=3;" parent="1" vertex="1">
                    <mxGeometry x="885" y="1130" width="200" height="60" as="geometry"/>
                </mxCell>
                <mxCell id="189" value="&lt;span style=&quot;color: rgb(255, 255, 255);&quot;&gt;Output:&lt;/span&gt;&lt;br&gt;&lt;span style=&quot;color: rgb(255, 255, 255);&quot;&gt;&quot;Gear Price: RM&quot;, gearPrice[i]&lt;/span&gt;" style="shape=parallelogram;perimeter=parallelogramPerimeter;whiteSpace=wrap;html=1;fixedSize=1;fillColor=#008a00;fontColor=#ffffff;strokeColor=#005700;textShadow=1;spacing=2;strokeWidth=3;" parent="1" vertex="1">
                    <mxGeometry x="655" y="1130" width="200" height="60" as="geometry"/>
                </mxCell>
                <mxCell id="190" value="" style="edgeStyle=none;html=1;strokeWidth=3;shadow=1;exitX=0;exitY=0.5;exitDx=0;exitDy=0;textShadow=1;rounded=0;curved=0;entryX=0.774;entryY=0.732;entryDx=0;entryDy=0;entryPerimeter=0;spacing=2;" parent="1" source="189" target="162" edge="1">
                    <mxGeometry relative="1" as="geometry">
                        <mxPoint x="674" y="1157.5" as="sourcePoint"/>
                        <mxPoint x="355" y="990" as="targetPoint"/>
                        <Array as="points">
                            <mxPoint x="355" y="1160"/>
                        </Array>
                    </mxGeometry>
                </mxCell>
                <mxCell id="201" value="&lt;span style=&quot;color: rgb(255, 255, 255);&quot;&gt;Output:&lt;/span&gt;&lt;br&gt;&lt;span style=&quot;color: rgb(255, 255, 255);&quot;&gt;&quot;Total Gear Price: &quot;, totalGearPrice&lt;/span&gt;" style="shape=parallelogram;perimeter=parallelogramPerimeter;whiteSpace=wrap;html=1;fixedSize=1;fillColor=#008a00;fontColor=#ffffff;strokeColor=#005700;textShadow=1;spacing=2;strokeWidth=3;" parent="1" vertex="1">
                    <mxGeometry x="212.5" y="1240" width="225" height="60" as="geometry"/>
                </mxCell>
                <mxCell id="202" value="" style="endArrow=classic;html=1;exitX=0.5;exitY=1;exitDx=0;exitDy=0;entryX=0.5;entryY=0;entryDx=0;entryDy=0;strokeWidth=3;spacing=2;" parent="1" source="162" target="201" edge="1">
                    <mxGeometry relative="1" as="geometry">
                        <mxPoint x="375" y="1070" as="sourcePoint"/>
                        <mxPoint x="475" y="1070" as="targetPoint"/>
                    </mxGeometry>
                </mxCell>
                <mxCell id="203" value="False" style="edgeLabel;resizable=0;html=1;;align=center;verticalAlign=middle;spacing=2;" parent="202" connectable="0" vertex="1">
                    <mxGeometry relative="1" as="geometry"/>
                </mxCell>
                <mxCell id="204" value="" style="edgeStyle=none;html=1;strokeWidth=3;shadow=1;textShadow=1;spacing=2;exitX=1;exitY=0.5;exitDx=0;exitDy=0;" parent="1" source="201" edge="1">
                    <mxGeometry relative="1" as="geometry">
                        <mxPoint x="438" y="1270" as="sourcePoint"/>
                        <mxPoint x="480" y="1270" as="targetPoint"/>
                    </mxGeometry>
                </mxCell>
                <mxCell id="231" value="" style="edgeStyle=none;html=1;strokeWidth=3;" parent="1" source="205" target="207" edge="1">
                    <mxGeometry relative="1" as="geometry"/>
                </mxCell>
                <mxCell id="205" value="Output:&lt;br&gt;&quot;Membership Discount&quot;,&lt;br&gt;membershipDiscount" style="shape=parallelogram;perimeter=parallelogramPerimeter;whiteSpace=wrap;html=1;fixedSize=1;fillColor=#008a00;fontColor=#ffffff;strokeColor=#005700;textShadow=1;spacing=2;strokeWidth=3;" parent="1" vertex="1">
                    <mxGeometry x="990" y="1240" width="200" height="60" as="geometry"/>
                </mxCell>
                <mxCell id="274" value="" style="edgeStyle=none;html=1;strokeWidth=3;" parent="1" source="207" target="208" edge="1">
                    <mxGeometry relative="1" as="geometry"/>
                </mxCell>
                <mxCell id="207" value="Output:&lt;br&gt;&quot;Total : RM&quot;, totalPrice" style="shape=parallelogram;perimeter=parallelogramPerimeter;whiteSpace=wrap;html=1;fixedSize=1;fillColor=#008a00;fontColor=#ffffff;strokeColor=#005700;textShadow=1;spacing=2;strokeWidth=3;" parent="1" vertex="1">
                    <mxGeometry x="1220" y="1240" width="200" height="60" as="geometry"/>
                </mxCell>
                <mxCell id="208" value="counter.totalIncome +=&lt;br&gt;totalPrice&lt;br&gt;&lt;span style=&quot;color: rgb(255, 255, 255);&quot;&gt;counter.customer +=&lt;/span&gt;&lt;br&gt;&lt;span style=&quot;color: rgb(255, 255, 255);&quot;&gt;driverCount&lt;/span&gt;" style="whiteSpace=wrap;html=1;fillColor=#fa6800;fontColor=#FFFFFF;strokeColor=#C73500;strokeWidth=3;textShadow=1;spacing=2;" parent="1" vertex="1">
                    <mxGeometry x="1450" y="1240" width="180" height="60" as="geometry"/>
                </mxCell>
                <mxCell id="283" value="" style="edgeStyle=none;html=1;strokeWidth=3;exitX=0.5;exitY=1;exitDx=0;exitDy=0;entryX=1;entryY=0.5;entryDx=0;entryDy=0;rounded=0;curved=0;" parent="1" source="208" target="276" edge="1">
                    <mxGeometry relative="1" as="geometry">
                        <mxPoint x="1280" y="1300" as="sourcePoint"/>
                        <mxPoint x="1280" y="1350" as="targetPoint"/>
                        <Array as="points">
                            <mxPoint x="1540" y="1425"/>
                        </Array>
                    </mxGeometry>
                </mxCell>
                <mxCell id="215" value="Prompt:&lt;br&gt;&quot;Continue for another customer?&lt;br&gt;(Y/N): &quot;" style="shape=parallelogram;perimeter=parallelogramPerimeter;whiteSpace=wrap;html=1;fixedSize=1;fillColor=#008a00;fontColor=#ffffff;strokeColor=#005700;textShadow=1;spacing=2;strokeWidth=3;" parent="1" vertex="1">
                    <mxGeometry x="225" y="1350" width="200" height="60" as="geometry"/>
                </mxCell>
                <mxCell id="216" value="" style="edgeStyle=none;html=1;strokeWidth=3;shadow=1;entryX=0.5;entryY=0;entryDx=0;entryDy=0;textShadow=1;spacing=2;" parent="1" edge="1">
                    <mxGeometry relative="1" as="geometry">
                        <mxPoint x="324.63000000000005" y="1410" as="sourcePoint"/>
                        <mxPoint x="324.97" y="1460" as="targetPoint"/>
                    </mxGeometry>
                </mxCell>
                <mxCell id="217" value="Input:&lt;br&gt;continueChoice =&lt;br&gt;getvalidCharacterInput()" style="shape=parallelogram;perimeter=parallelogramPerimeter;whiteSpace=wrap;html=1;fixedSize=1;fillColor=#e3c800;fontColor=#FFFFFF;strokeColor=#B09500;textShadow=1;spacing=2;strokeWidth=3;" parent="1" vertex="1">
                    <mxGeometry x="225" y="1460" width="200" height="60" as="geometry"/>
                </mxCell>
                <mxCell id="218" value="" style="edgeStyle=none;html=1;strokeWidth=3;shadow=1;entryX=0.5;entryY=0;entryDx=0;entryDy=0;textShadow=1;spacing=2;" parent="1" edge="1">
                    <mxGeometry relative="1" as="geometry">
                        <mxPoint x="324.76000000000005" y="1520" as="sourcePoint"/>
                        <mxPoint x="325.1" y="1570" as="targetPoint"/>
                    </mxGeometry>
                </mxCell>
                <mxCell id="221" value="End" style="strokeWidth=3;html=1;shape=mxgraph.flowchart.terminator;whiteSpace=wrap;fillColor=#d80073;strokeColor=#A50040;shadow=1;fontColor=#ffffff;textShadow=1;spacing=2;" parent="1" vertex="1">
                    <mxGeometry x="275" y="1980" width="100" height="60" as="geometry"/>
                </mxCell>
                <mxCell id="223" value="Prompt:&lt;br&gt;&quot;Driver: &quot;, driverName[i]" style="shape=parallelogram;perimeter=parallelogramPerimeter;whiteSpace=wrap;html=1;fixedSize=1;fillColor=#008a00;fontColor=#ffffff;strokeColor=#005700;strokeWidth=3;" parent="1" vertex="1">
                    <mxGeometry x="650" y="395" width="200" height="60" as="geometry"/>
                </mxCell>
                <mxCell id="225" value="" style="edgeStyle=none;html=1;strokeWidth=3;shadow=1;textShadow=1;spacing=2;exitX=1;exitY=0.5;exitDx=0;exitDy=0;" parent="1" edge="1">
                    <mxGeometry relative="1" as="geometry">
                        <mxPoint x="640" y="179.55" as="sourcePoint"/>
                        <mxPoint x="690" y="179.55" as="targetPoint"/>
                    </mxGeometry>
                </mxCell>
                <mxCell id="226" value="" style="edgeStyle=none;html=1;strokeWidth=3;shadow=1;textShadow=1;spacing=2;exitX=1;exitY=0.5;exitDx=0;exitDy=0;" parent="1" edge="1">
                    <mxGeometry relative="1" as="geometry">
                        <mxPoint x="870" y="179.5" as="sourcePoint"/>
                        <mxPoint x="920" y="179.5" as="targetPoint"/>
                    </mxGeometry>
                </mxCell>
                <mxCell id="227" value="" style="edgeStyle=none;html=1;strokeWidth=3;shadow=1;textShadow=1;spacing=2;exitX=0;exitY=0.5;exitDx=0;exitDy=0;entryX=1;entryY=0.5;entryDx=0;entryDy=0;" parent="1" source="126" target="129" edge="1">
                    <mxGeometry relative="1" as="geometry">
                        <mxPoint x="880" y="189.5" as="sourcePoint"/>
                        <mxPoint x="930" y="189.5" as="targetPoint"/>
                    </mxGeometry>
                </mxCell>
                <mxCell id="236" value="True" style="edgeStyle=none;orthogonalLoop=1;jettySize=auto;html=1;strokeWidth=3;exitX=0;exitY=0.5;exitDx=0;exitDy=0;rounded=0;curved=0;" parent="1" source="109" edge="1">
                    <mxGeometry x="-0.9662" width="100" relative="1" as="geometry">
                        <mxPoint x="90" y="1750" as="sourcePoint"/>
                        <mxPoint x="320" y="120" as="targetPoint"/>
                        <Array as="points">
                            <mxPoint x="160" y="1665"/>
                            <mxPoint x="160" y="120"/>
                        </Array>
                        <mxPoint as="offset"/>
                    </mxGeometry>
                </mxCell>
                <mxCell id="238" value="False" style="edgeStyle=none;orthogonalLoop=1;jettySize=auto;html=1;strokeWidth=3;exitX=1;exitY=0.5;exitDx=0;exitDy=0;" parent="1" source="109" edge="1">
                    <mxGeometry x="-0.2" width="100" relative="1" as="geometry">
                        <mxPoint x="337.5" y="1770" as="sourcePoint"/>
                        <mxPoint x="470" y="1665" as="targetPoint"/>
                        <Array as="points"/>
                        <mxPoint as="offset"/>
                    </mxGeometry>
                </mxCell>
                <mxCell id="239" value="Output:&lt;br&gt;&quot;Total Number of Drivers: &quot;,&lt;br&gt;counter.customer" style="shape=parallelogram;perimeter=parallelogramPerimeter;whiteSpace=wrap;html=1;fixedSize=1;fillColor=#008a00;fontColor=#ffffff;strokeColor=#005700;strokeWidth=3;" parent="1" vertex="1">
                    <mxGeometry x="460" y="1635" width="200" height="60" as="geometry"/>
                </mxCell>
                <mxCell id="241" value="Output:&lt;br&gt;&quot;Total Number of 120cc Go-Kart Booked: &quot;, counter.cc120" style="shape=parallelogram;perimeter=parallelogramPerimeter;whiteSpace=wrap;html=1;fixedSize=1;fillColor=#008a00;fontColor=#ffffff;strokeColor=#005700;strokeWidth=3;" parent="1" vertex="1">
                    <mxGeometry x="920" y="1635" width="200" height="60" as="geometry"/>
                </mxCell>
                <mxCell id="242" value="Output:&lt;br&gt;&quot;Total Number of 200cc Go-Kart Booked: &quot;, counter.cc200" style="shape=parallelogram;perimeter=parallelogramPerimeter;whiteSpace=wrap;html=1;fixedSize=1;fillColor=#008a00;fontColor=#ffffff;strokeColor=#005700;strokeWidth=3;" parent="1" vertex="1">
                    <mxGeometry x="1150" y="1635" width="200" height="60" as="geometry"/>
                </mxCell>
                <mxCell id="264" value="" style="edgeStyle=none;html=1;strokeWidth=3;" parent="1" source="245" target="246" edge="1">
                    <mxGeometry relative="1" as="geometry"/>
                </mxCell>
                <mxCell id="245" value="Output:&lt;br&gt;&quot;Total Number of Section 9 Circuit booking: &quot;, counter.section9" style="shape=parallelogram;perimeter=parallelogramPerimeter;whiteSpace=wrap;html=1;fixedSize=1;strokeWidth=3;fillColor=#008a00;fontColor=#ffffff;strokeColor=#005700;" parent="1" vertex="1">
                    <mxGeometry x="680" y="1750" width="200" height="60" as="geometry"/>
                </mxCell>
                <mxCell id="246" value="Output:&lt;br&gt;&quot;Total Number of Blackrock Circuit booking: &quot;, counter.blackrock" style="shape=parallelogram;perimeter=parallelogramPerimeter;whiteSpace=wrap;html=1;fixedSize=1;strokeWidth=3;fillColor=#008a00;fontColor=#ffffff;strokeColor=#005700;" parent="1" vertex="1">
                    <mxGeometry x="450" y="1750" width="200" height="60" as="geometry"/>
                </mxCell>
                <mxCell id="268" value="" style="edgeStyle=none;html=1;strokeWidth=3;" parent="1" source="249" target="250" edge="1">
                    <mxGeometry relative="1" as="geometry"/>
                </mxCell>
                <mxCell id="249" value="Output:&lt;br&gt;&quot;Total Number of Chrono Pass booking: &quot;, counter.ChronoPass" style="shape=parallelogram;perimeter=parallelogramPerimeter;whiteSpace=wrap;html=1;fixedSize=1;fillColor=#008a00;fontColor=#ffffff;strokeColor=#005700;strokeWidth=3;" parent="1" vertex="1">
                    <mxGeometry x="920" y="1870" width="200" height="60" as="geometry"/>
                </mxCell>
                <mxCell id="291" value="" style="edgeStyle=none;html=1;strokeWidth=3;" parent="1" source="250" target="289" edge="1">
                    <mxGeometry relative="1" as="geometry"/>
                </mxCell>
                <mxCell id="250" value="Output:&lt;br&gt;&quot;Total Number of Torque Strip booking: &quot;, counter.torqueStrip" style="shape=parallelogram;perimeter=parallelogramPerimeter;whiteSpace=wrap;html=1;fixedSize=1;strokeWidth=3;fillColor=#008a00;fontColor=#ffffff;strokeColor=#005700;" parent="1" vertex="1">
                    <mxGeometry x="680" y="1870" width="200" height="60" as="geometry"/>
                </mxCell>
                <mxCell id="267" value="" style="edgeStyle=none;html=1;strokeWidth=3;" parent="1" source="252" target="249" edge="1">
                    <mxGeometry relative="1" as="geometry"/>
                </mxCell>
                <mxCell id="252" value="&lt;span style=&quot;color: rgb(255, 255, 255);&quot;&gt;Output:&lt;/span&gt;&lt;br&gt;&lt;span style=&quot;color: rgb(255, 255, 255);&quot;&gt;&quot;Total Number of Rushline Dash booking: &quot;, counter.rushlineDash&lt;/span&gt;" style="shape=parallelogram;perimeter=parallelogramPerimeter;whiteSpace=wrap;html=1;fixedSize=1;fillColor=#008a00;fontColor=#ffffff;strokeColor=#005700;strokeWidth=3;" parent="1" vertex="1">
                    <mxGeometry x="1150" y="1870" width="200" height="60" as="geometry"/>
                </mxCell>
                <mxCell id="253" value="&lt;span style=&quot;color: rgb(255, 255, 255);&quot;&gt;Output:&lt;/span&gt;&lt;br&gt;&lt;span style=&quot;color: rgb(255, 255, 255);&quot;&gt;&quot;Total Income: RM&quot;,&lt;/span&gt;&lt;br&gt;&lt;span style=&quot;color: rgb(255, 255, 255);&quot;&gt;counter.totalIncome&lt;/span&gt;" style="shape=parallelogram;perimeter=parallelogramPerimeter;whiteSpace=wrap;html=1;fixedSize=1;fillColor=#008a00;fontColor=#ffffff;strokeColor=#005700;strokeWidth=3;" parent="1" vertex="1">
                    <mxGeometry x="690" y="1635" width="200" height="60" as="geometry"/>
                </mxCell>
                <mxCell id="262" value="" style="edgeStyle=none;html=1;strokeWidth=3;" parent="1" source="254" target="255" edge="1">
                    <mxGeometry relative="1" as="geometry"/>
                </mxCell>
                <mxCell id="254" value="&lt;span style=&quot;color: rgb(255, 255, 255);&quot;&gt;Output:&lt;/span&gt;&lt;br&gt;&lt;span style=&quot;color: rgb(255, 255, 255);&quot;&gt;&quot;Total Number of 270cc&lt;/span&gt;&lt;br&gt;&lt;span style=&quot;color: rgb(255, 255, 255);&quot;&gt;Go-Kart Booked: &quot;, counter.cc270&lt;/span&gt;" style="shape=parallelogram;perimeter=parallelogramPerimeter;whiteSpace=wrap;html=1;fixedSize=1;fillColor=#008a00;fontColor=#ffffff;strokeColor=#005700;strokeWidth=3;" parent="1" vertex="1">
                    <mxGeometry x="1150" y="1750" width="200" height="60" as="geometry"/>
                </mxCell>
                <mxCell id="263" value="" style="edgeStyle=none;html=1;strokeWidth=3;" parent="1" source="255" target="245" edge="1">
                    <mxGeometry relative="1" as="geometry"/>
                </mxCell>
                <mxCell id="255" value="&lt;span style=&quot;color: rgb(255, 255, 255);&quot;&gt;Output:&lt;/span&gt;&lt;br&gt;&lt;span style=&quot;color: rgb(255, 255, 255);&quot;&gt;&quot;Total Number of members: &quot;, counter.members&lt;/span&gt;" style="shape=parallelogram;perimeter=parallelogramPerimeter;whiteSpace=wrap;html=1;fixedSize=1;fillColor=#008a00;fontColor=#ffffff;strokeColor=#005700;strokeWidth=3;" parent="1" vertex="1">
                    <mxGeometry x="920" y="1750" width="200" height="60" as="geometry"/>
                </mxCell>
                <mxCell id="256" value="" style="edgeStyle=none;orthogonalLoop=1;jettySize=auto;html=1;strokeWidth=3;exitX=1;exitY=0.5;exitDx=0;exitDy=0;" parent="1" source="239" edge="1">
                    <mxGeometry width="100" relative="1" as="geometry">
                        <mxPoint x="600" y="1720" as="sourcePoint"/>
                        <mxPoint x="700" y="1665" as="targetPoint"/>
                        <Array as="points"/>
                    </mxGeometry>
                </mxCell>
                <mxCell id="257" value="" style="edgeStyle=none;orthogonalLoop=1;jettySize=auto;html=1;strokeWidth=3;exitX=1;exitY=0.5;exitDx=0;exitDy=0;" parent="1" edge="1">
                    <mxGeometry width="100" relative="1" as="geometry">
                        <mxPoint x="880" y="1664.71" as="sourcePoint"/>
                        <mxPoint x="930" y="1664.71" as="targetPoint"/>
                        <Array as="points"/>
                    </mxGeometry>
                </mxCell>
                <mxCell id="260" value="" style="edgeStyle=none;orthogonalLoop=1;jettySize=auto;html=1;strokeWidth=3;exitX=1;exitY=0.5;exitDx=0;exitDy=0;" parent="1" edge="1">
                    <mxGeometry width="100" relative="1" as="geometry">
                        <mxPoint x="1110" y="1664.69" as="sourcePoint"/>
                        <mxPoint x="1160" y="1664.69" as="targetPoint"/>
                        <Array as="points"/>
                    </mxGeometry>
                </mxCell>
                <mxCell id="261" value="" style="edgeStyle=none;orthogonalLoop=1;jettySize=auto;html=1;strokeWidth=3;exitX=0.5;exitY=1;exitDx=0;exitDy=0;entryX=0.5;entryY=0;entryDx=0;entryDy=0;" parent="1" target="254" edge="1">
                    <mxGeometry width="100" relative="1" as="geometry">
                        <mxPoint x="1249.77" y="1695" as="sourcePoint"/>
                        <mxPoint x="1249.77" y="1745" as="targetPoint"/>
                        <Array as="points"/>
                    </mxGeometry>
                </mxCell>
                <mxCell id="265" value="" style="edgeStyle=none;orthogonalLoop=1;jettySize=auto;html=1;exitX=0.5;exitY=1;exitDx=0;exitDy=0;entryX=0.5;entryY=0;entryDx=0;entryDy=0;rounded=0;curved=0;strokeWidth=3;" parent="1" source="246" target="252" edge="1">
                    <mxGeometry width="100" relative="1" as="geometry">
                        <mxPoint x="460" y="1900" as="sourcePoint"/>
                        <mxPoint x="560" y="1900" as="targetPoint"/>
                        <Array as="points">
                            <mxPoint x="550" y="1840"/>
                            <mxPoint x="1250" y="1840"/>
                        </Array>
                    </mxGeometry>
                </mxCell>
                <mxCell id="273" value="" style="edgeStyle=none;html=1;strokeWidth=3;" parent="1" source="271" target="223" edge="1">
                    <mxGeometry relative="1" as="geometry"/>
                </mxCell>
                <mxCell id="271" value="displayRacingGear()" style="shape=process;whiteSpace=wrap;html=1;backgroundOutline=1;fillColor=#0050ef;fontColor=#ffffff;strokeColor=#001DBC;strokeWidth=3;" parent="1" vertex="1">
                    <mxGeometry x="430" y="395" width="180" height="60" as="geometry"/>
                </mxCell>
                <mxCell id="276" value="totalPrice &amp;lt; counter.minTotalPrice" style="rhombus;whiteSpace=wrap;html=1;fillColor=#1ba1e2;fontColor=#ffffff;strokeColor=#006EAF;strokeWidth=3;" parent="1" vertex="1">
                    <mxGeometry x="1205" y="1350" width="150" height="150" as="geometry"/>
                </mxCell>
                <mxCell id="286" value="" style="edgeStyle=none;html=1;strokeWidth=3;" parent="1" source="278" target="280" edge="1">
                    <mxGeometry relative="1" as="geometry"/>
                </mxCell>
                <mxCell id="278" value="counter.minTotalPrice =&lt;br&gt;totalPrice" style="whiteSpace=wrap;html=1;fillColor=#fa6800;fontColor=#FFFFFF;strokeColor=#C73500;strokeWidth=3;textShadow=1;spacing=2;" parent="1" vertex="1">
                    <mxGeometry x="930" y="1395" width="180" height="60" as="geometry"/>
                </mxCell>
                <mxCell id="282" value="" style="edgeStyle=orthogonalEdgeStyle;html=1;entryX=1;entryY=0.5;entryDx=0;entryDy=0;exitX=0;exitY=0.5;exitDx=0;exitDy=0;rounded=0;curved=0;strokeWidth=3;" parent="1" source="279" target="215" edge="1">
                    <mxGeometry relative="1" as="geometry"/>
                </mxCell>
                <mxCell id="279" value="counter.maxTotalPrice =&lt;br&gt;totalPrice" style="whiteSpace=wrap;html=1;fillColor=#fa6800;fontColor=#FFFFFF;strokeColor=#C73500;strokeWidth=3;textShadow=1;spacing=2;" parent="1" vertex="1">
                    <mxGeometry x="490" y="1395" width="180" height="60" as="geometry"/>
                </mxCell>
                <mxCell id="280" value="totalPrice &amp;lt; counter.maxTotalPrice" style="rhombus;whiteSpace=wrap;html=1;fillColor=#1ba1e2;fontColor=#ffffff;strokeColor=#006EAF;strokeWidth=3;" parent="1" vertex="1">
                    <mxGeometry x="720" y="1350" width="150" height="150" as="geometry"/>
                </mxCell>
                <mxCell id="284" value="True" style="edgeStyle=none;orthogonalLoop=1;jettySize=auto;html=1;exitX=0;exitY=0.5;exitDx=0;exitDy=0;entryX=1;entryY=0.5;entryDx=0;entryDy=0;strokeWidth=3;" parent="1" source="276" target="278" edge="1">
                    <mxGeometry x="-0.3333" width="100" relative="1" as="geometry">
                        <mxPoint x="1090" y="1490" as="sourcePoint"/>
                        <mxPoint x="1190" y="1490" as="targetPoint"/>
                        <Array as="points"/>
                        <mxPoint as="offset"/>
                    </mxGeometry>
                </mxCell>
                <mxCell id="285" value="False" style="edgeStyle=none;orthogonalLoop=1;jettySize=auto;html=1;strokeWidth=3;exitX=0.5;exitY=1;exitDx=0;exitDy=0;rounded=0;curved=0;" parent="1" source="276" edge="1">
                    <mxGeometry x="-0.5556" width="100" relative="1" as="geometry">
                        <mxPoint x="1090" y="1530" as="sourcePoint"/>
                        <mxPoint x="910" y="1425" as="targetPoint"/>
                        <Array as="points">
                            <mxPoint x="910" y="1500"/>
                        </Array>
                        <mxPoint as="offset"/>
                    </mxGeometry>
                </mxCell>
                <mxCell id="287" value="False" style="edgeStyle=none;orthogonalLoop=1;jettySize=auto;html=1;strokeWidth=3;rounded=0;curved=0;exitX=0.5;exitY=1;exitDx=0;exitDy=0;" parent="1" source="280" edge="1">
                    <mxGeometry x="-0.575" width="100" relative="1" as="geometry">
                        <mxPoint x="780" y="1510" as="sourcePoint"/>
                        <mxPoint x="470" y="1425" as="targetPoint"/>
                        <Array as="points">
                            <mxPoint x="470" y="1500"/>
                        </Array>
                        <mxPoint as="offset"/>
                    </mxGeometry>
                </mxCell>
                <mxCell id="288" value="True" style="edgeStyle=none;orthogonalLoop=1;jettySize=auto;html=1;exitX=0;exitY=0.5;exitDx=0;exitDy=0;entryX=1;entryY=0.5;entryDx=0;entryDy=0;strokeWidth=3;" parent="1" source="280" target="279" edge="1">
                    <mxGeometry x="-0.3333" width="100" relative="1" as="geometry">
                        <mxPoint x="725" y="1424.74" as="sourcePoint"/>
                        <mxPoint x="680" y="1424.74" as="targetPoint"/>
                        <Array as="points"/>
                        <mxPoint as="offset"/>
                    </mxGeometry>
                </mxCell>
                <mxCell id="292" value="" style="edgeStyle=none;html=1;strokeWidth=3;" parent="1" source="289" target="290" edge="1">
                    <mxGeometry relative="1" as="geometry"/>
                </mxCell>
                <mxCell id="289" value="Output:&lt;br&gt;&quot;Minimum amount of payment:&lt;br&gt;&amp;nbsp;RM&quot;, counter.minTotalPrice" style="shape=parallelogram;perimeter=parallelogramPerimeter;whiteSpace=wrap;html=1;fixedSize=1;strokeWidth=3;fillColor=#008a00;fontColor=#ffffff;strokeColor=#005700;" parent="1" vertex="1">
                    <mxGeometry x="450" y="1870" width="200" height="60" as="geometry"/>
                </mxCell>
                <mxCell id="290" value="Output:&lt;br&gt;&quot;Maximum amount of payment:&lt;br&gt;&amp;nbsp;RM&quot;, counter.maxTotalPrice" style="shape=parallelogram;perimeter=parallelogramPerimeter;whiteSpace=wrap;html=1;fixedSize=1;strokeWidth=3;fillColor=#008a00;fontColor=#ffffff;strokeColor=#005700;" parent="1" vertex="1">
                    <mxGeometry x="225" y="1870" width="200" height="60" as="geometry"/>
                </mxCell>
                <mxCell id="293" value="" style="edgeStyle=none;html=1;strokeWidth=3;shadow=1;entryX=0.5;entryY=0;entryDx=0;entryDy=0;textShadow=1;spacing=2;" parent="1" edge="1">
                    <mxGeometry relative="1" as="geometry">
                        <mxPoint x="324.71000000000004" y="1930" as="sourcePoint"/>
                        <mxPoint x="325.05" y="1980" as="targetPoint"/>
                    </mxGeometry>
                </mxCell>
                <mxCell id="294" value="&lt;span style=&quot;color: rgb(255, 255, 255);&quot;&gt;Output:&lt;/span&gt;&lt;br&gt;&lt;span style=&quot;color: rgb(255, 255, 255);&quot;&gt;&quot;Subtotal before discount :RM &quot;, totalPrice / (1 - membershipDiscount)&lt;/span&gt;" style="shape=parallelogram;perimeter=parallelogramPerimeter;whiteSpace=wrap;html=1;fixedSize=1;fillColor=#008a00;fontColor=#ffffff;strokeColor=#005700;textShadow=1;spacing=2;strokeWidth=3;" parent="1" vertex="1">
                    <mxGeometry x="730" y="1240" width="225" height="60" as="geometry"/>
                </mxCell>
                <mxCell id="295" value="" style="edgeStyle=none;html=1;strokeWidth=3;shadow=1;textShadow=1;spacing=2;exitX=1;exitY=0.5;exitDx=0;exitDy=0;" parent="1" source="294" edge="1">
                    <mxGeometry relative="1" as="geometry">
                        <mxPoint x="950" y="1269.71" as="sourcePoint"/>
                        <mxPoint x="1002" y="1269.71" as="targetPoint"/>
                    </mxGeometry>
                </mxCell>
                <mxCell id="299" value="" style="edgeStyle=none;html=1;strokeWidth=3;" parent="1" source="296" target="297" edge="1">
                    <mxGeometry relative="1" as="geometry"/>
                </mxCell>
                <mxCell id="296" value="Output:&lt;br&gt;&quot;Price per CC: RM &quot;,&lt;br&gt;PRICEPERCC, &quot;cc&quot;" style="shape=parallelogram;perimeter=parallelogramPerimeter;whiteSpace=wrap;html=1;fixedSize=1;fillColor=#008a00;fontColor=#ffffff;strokeColor=#005700;textShadow=1;spacing=2;strokeWidth=3;" parent="1" vertex="1">
                    <mxGeometry x="1350" y="895" width="200" height="60" as="geometry"/>
                </mxCell>
                <mxCell id="300" value="" style="edgeStyle=none;html=1;strokeWidth=3;" parent="1" source="297" target="171" edge="1">
                    <mxGeometry relative="1" as="geometry"/>
                </mxCell>
                <mxCell id="297" value="Output:&lt;br&gt;&quot;Go-Kart Price: RM&quot;,&lt;br&gt;PRICEPERCC * engineCapacity[i]&lt;br&gt;&quot; * &quot;, laps, &quot; = RM&quot;, kartPrice[i]" style="shape=parallelogram;perimeter=parallelogramPerimeter;whiteSpace=wrap;html=1;fixedSize=1;fillColor=#008a00;fontColor=#ffffff;strokeColor=#005700;textShadow=1;spacing=2;strokeWidth=3;" parent="1" vertex="1">
                    <mxGeometry x="1350" y="1010" width="200" height="60" as="geometry"/>
                </mxCell>
                <mxCell id="301" value="Output:&lt;br&gt;&quot;Total Go-Kart Price: RM&quot;,&lt;br&gt;*pTotalKartPrice" style="shape=parallelogram;perimeter=parallelogramPerimeter;whiteSpace=wrap;html=1;fixedSize=1;fillColor=#008a00;fontColor=#ffffff;strokeColor=#005700;textShadow=1;spacing=2;strokeWidth=3;" parent="1" vertex="1">
                    <mxGeometry x="470" y="1240" width="225" height="60" as="geometry"/>
                </mxCell>
                <mxCell id="302" value="" style="edgeStyle=none;html=1;strokeWidth=3;shadow=1;textShadow=1;spacing=2;exitX=1;exitY=0.5;exitDx=0;exitDy=0;" parent="1" source="301" edge="1">
                    <mxGeometry relative="1" as="geometry">
                        <mxPoint x="690" y="1269.8400000000001" as="sourcePoint"/>
                        <mxPoint x="742" y="1269.8400000000001" as="targetPoint"/>
                    </mxGeometry>
                </mxCell>
                <mxCell id="303" value="Output:&lt;br&gt;&quot;Track&quot;, track" style="shape=parallelogram;perimeter=parallelogramPerimeter;whiteSpace=wrap;html=1;fixedSize=1;fillColor=#008a00;fontColor=#ffffff;strokeColor=#005700;textShadow=1;spacing=2;strokeWidth=3;" vertex="1" parent="1">
                    <mxGeometry x="510" y="760" width="200" height="60" as="geometry"/>
                </mxCell>
                <mxCell id="305" value="" style="edgeStyle=none;html=1;strokeWidth=3;" edge="1" parent="1" source="304" target="303">
                    <mxGeometry relative="1" as="geometry"/>
                </mxCell>
                <mxCell id="304" value="Output:&lt;br&gt;&quot;Race Format&quot;, raceFormat" style="shape=parallelogram;perimeter=parallelogramPerimeter;whiteSpace=wrap;html=1;fixedSize=1;fillColor=#008a00;fontColor=#ffffff;strokeColor=#005700;textShadow=1;spacing=2;strokeWidth=3;" vertex="1" parent="1">
                    <mxGeometry x="760" y="760" width="200" height="60" as="geometry"/>
                </mxCell>
            </root>
        </mxGraphModel>
    </diagram>
</mxfile>